<svg width="20" height="20" viewBox="0 0 20 20" fill="none" xmlns="http://www.w3.org/2000/svg">
<path fill-rule="evenodd" clip-rule="evenodd" d="M11.5347 18.8697C14.6185 18.3399 17.166 16.2409 18.3257 13.4243H14.2289C13.6297 15.7796 12.5162 17.7214 11.5347 18.8697ZM8.46546 18.8697C7.48389 17.7214 6.37044 15.7796 5.77118 13.4243H1.67432C2.83404 16.241 5.38158 18.3399 8.46546 18.8697ZM6.80548 13.4243C7.13163 14.614 7.59622 15.6863 8.1002 16.5797C8.57703 17.425 9.07461 18.0841 9.49554 18.5169C9.70436 18.7316 9.8763 18.872 10.0001 18.9523C10.1238 18.872 10.2957 18.7316 10.5046 18.5169C10.9255 18.0841 11.4231 17.425 11.8999 16.5797C12.4039 15.6863 12.8685 14.614 13.1946 13.4243H6.80548ZM13.4289 12.4243H6.57121C6.42052 11.65 6.33339 10.837 6.33339 10C6.33339 9.08622 6.43724 8.20109 6.61426 7.36366H13.3858C13.5629 8.20109 13.6667 9.08622 13.6667 10C13.6667 10.837 13.5796 11.65 13.4289 12.4243ZM14.4464 12.4243H18.6697C18.8849 11.653 19 10.8399 19 10C19 9.0827 18.8628 8.19745 18.6077 7.36366H14.4064C14.5712 8.20358 14.6667 9.08752 14.6667 10C14.6667 10.836 14.5865 11.6481 14.4464 12.4243ZM14.1733 6.36366H18.2351C17.0369 3.65402 14.5406 1.64674 11.5347 1.13032C12.4866 2.24394 13.5626 4.10394 14.1733 6.36366ZM13.1347 6.36366C12.8128 5.25842 12.3738 4.26026 11.8999 3.42026C11.4231 2.57496 10.9255 1.91585 10.5046 1.48309C10.2957 1.26839 10.1238 1.12804 10.0001 1.04775C9.8763 1.12804 9.70437 1.26839 9.49554 1.48309C9.07461 1.91585 8.57703 2.57496 8.1002 3.42026C7.62634 4.26026 7.18732 5.25842 6.86543 6.36366H13.1347ZM5.82682 6.36366C6.43752 4.10393 7.51351 2.24392 8.46546 1.1303C5.45948 1.64669 2.9631 3.65399 1.76485 6.36366H5.82682ZM10 0C15.5229 2.38235e-05 20 4.47717 20 10C20 15.5228 15.5228 20 10 20C4.47715 20 0 15.5228 0 10C0 4.47715 4.47715 0 10 0C10 0 10 0 10 0ZM5.5937 7.36366C5.42893 8.20358 5.33339 9.08752 5.33339 10C5.33339 10.836 5.41359 11.6481 5.55375 12.4243H1.33027C1.11506 11.653 1 10.8399 1 10C1 9.0827 1.13723 8.19745 1.39229 7.36366H5.5937Z" fill="black"/>
</svg>
