<svg width="24" height="24" viewBox="0 0 24 24" fill="none" xmlns="http://www.w3.org/2000/svg">
<path fill-rule="evenodd" clip-rule="evenodd" d="M12 21C16.9706 21 21 16.9706 21 12C21 7.02944 16.9706 3 12 3C7.02944 3 3 7.02944 3 12C3 16.9706 7.02944 21 12 21ZM12 22C17.5228 22 22 17.5228 22 12C22 6.47715 17.5228 2 12 2C6.47715 2 2 6.47715 2 12C2 17.5228 6.47715 22 12 22Z" fill="black"/>
<path fill-rule="evenodd" clip-rule="evenodd" d="M12.3582 8.19881C12.0017 8.13417 11.6325 8.16763 11.2988 8.29362C10.9653 8.41953 10.6863 8.63044 10.4931 8.89409C10.3002 9.15721 10.2 9.46227 10.2 9.77083C10.2 10.093 9.93137 10.3542 9.6 10.3542C9.26863 10.3542 9 10.093 9 9.77083C9 9.21411 9.18133 8.6733 9.51587 8.21696C9.85003 7.76114 10.3208 7.4113 10.8644 7.20607C11.4077 7.00093 12.0036 6.94775 12.5782 7.05192C13.1529 7.1561 13.6857 7.41406 14.1074 7.79847C14.5296 8.18326 14.8219 8.6782 14.9408 9.223C15.0598 9.76817 14.9983 10.3328 14.7661 10.8437C14.5342 11.3541 14.1443 11.7841 13.6519 12.084C13.3299 12.2801 12.9725 12.4155 12.6 12.4857V13.4167C12.6 13.7388 12.3314 14 12 14C11.6686 14 11.4 13.7388 11.4 13.4167V11.9583C11.4 11.6362 11.6686 11.375 12 11.375C12.3643 11.375 12.7176 11.2764 13.0148 11.0953C13.3118 10.9145 13.5371 10.6613 13.6685 10.3722C13.7996 10.0837 13.8332 9.76865 13.7669 9.46515C13.7006 9.16128 13.5358 8.87667 13.2867 8.6496C13.0371 8.42216 12.7147 8.26344 12.3582 8.19881Z" fill="black"/>
<path d="M12 15C11.8022 15 11.6089 15.0586 11.4444 15.1685C11.28 15.2784 11.1518 15.4346 11.0761 15.6173C11.0004 15.8 10.9806 16.0011 11.0192 16.1951C11.0578 16.3891 11.153 16.5673 11.2929 16.7071C11.4327 16.847 11.6109 16.9422 11.8049 16.9808C11.9989 17.0194 12.2 16.9996 12.3827 16.9239C12.5654 16.8482 12.7216 16.72 12.8315 16.5556C12.9414 16.3911 13 16.1978 13 16C12.9965 15.7359 12.8901 15.4835 12.7033 15.2967C12.5165 15.1099 12.2641 15.0035 12 15Z" fill="black"/>
</svg>
