<svg width="24" height="24" viewBox="0 0 24 24" fill="none" xmlns="http://www.w3.org/2000/svg">
<g clip-path="url(#clip0_1_2060)">
<path d="M15.21 19.75H3.84C2.41 19.75 1.25 18.59 1.25 17.16V3.84C1.25 2.41 2.41 1.25 3.84 1.25H9.09C10.1 1.25 11.02 1.84 11.445 2.76L17.565 16.08C18.355 17.795 17.1 19.75 15.21 19.75Z" stroke="black" stroke-miterlimit="10"/>
<path d="M12.1311 4.25H20.16C21.59 4.25 22.75 5.41 22.75 6.84V20.16C22.75 21.59 21.59 22.75 20.16 22.75H14.91C13.9 22.75 12.98 22.16 12.555 21.24L11.8525 19.711" stroke="black" stroke-miterlimit="10"/>
<path d="M9.79 13.6101L9.11 11.6101H6.16L5.48 13.6101H4.25L6.87 6.36011H8.46L11.05 13.6101H9.79ZM7.59 7.27011L6.47 10.6801H8.79L7.68 7.27011H7.59Z" fill="black"/>
<path d="M21.37 16.0451C19.955 15.7201 18.775 15.1551 17.83 14.3701C18.71 13.4501 19.395 12.3101 19.91 10.8951H21.25V10.0851H17.605V8.61011H16.75V10.0851H15.085L15.455 10.8951H18.93C18.505 12.0451 17.93 13.0001 17.175 13.7751C16.82 13.4101 16.51 13.0101 16.235 12.5801L17.475 15.2801C18.385 15.9851 19.455 16.5251 20.77 16.8701C20.905 16.6251 21.175 16.2401 21.375 16.0401L21.37 16.0451Z" fill="black"/>
</g>
<defs>
<clipPath id="clip0_1_2060">
<rect width="24" height="24" fill="white"/>
</clipPath>
</defs>
</svg>
