<svg width="200" height="247" viewBox="0 0 200 247" fill="none" xmlns="http://www.w3.org/2000/svg">
<g clip-path="url(#clip0_214_5201)">
<path opacity="0.5" d="M165.343 194.34H187.213C188.844 194.34 190.17 195.667 190.17 197.299C190.17 198.932 188.844 200.258 187.213 200.258H165.343C163.712 200.258 162.386 198.932 162.386 197.299C162.386 195.667 163.712 194.34 165.343 194.34ZM165.343 202.224H187.213C188.844 202.224 190.17 203.551 190.17 205.184C190.17 206.816 188.844 208.143 187.213 208.143H165.343C163.712 208.143 162.386 206.816 162.386 205.184C162.386 203.551 163.712 202.224 165.343 202.224ZM165.343 210.116H187.213C188.844 210.116 190.17 211.442 190.17 213.075C190.17 214.707 188.844 216.034 187.213 216.034H165.343C163.712 216.034 162.386 214.707 162.386 213.075C162.386 211.442 163.712 210.116 165.343 210.116Z" fill="white"/>
<g opacity="0.5">
<path d="M95.2686 24.5376H27.3896V62.2927H95.2686V24.5376ZM88.4705 55.49H34.1877V50.8097H88.4705V55.49ZM88.4705 45.4219H34.1877V41.4015H88.4705V45.4219ZM88.4705 36.0206H34.1877V31.3403H88.4705V36.0206Z" fill="white"/>
<path d="M31.2712 109.864H91.0945V89.5034H31.2712V109.864ZM38.0693 96.3061H84.2964V103.061H38.0693V96.3061Z" fill="white"/>
<path d="M197.043 144.456H122.366V20.7755C122.366 9.31973 113.052 0 101.604 0H20.7614C9.31339 0 0 9.31973 0 20.7755V241.156C0 243.973 2.28416 246.258 5.09857 246.258H117.267C120.082 246.258 122.366 243.973 122.366 241.156V229.238H165.316L162.91 232.878C161.863 234.456 161.768 236.476 162.651 238.156C163.528 239.81 165.221 240.85 167.077 240.871H187.77C190.938 240.871 193.426 238.68 193.426 235.891V229.238H197.05C198.681 229.238 200.007 227.912 200.007 226.279V147.415C200.007 145.782 198.681 144.456 197.05 144.456H197.043ZM17.3623 236.054H10.1971V20.7755C10.1971 16.1361 13.2019 12.1973 17.3623 10.7755V236.054ZM98.2053 236.054H24.1604V10.2041H98.1985V236.054H98.2053ZM112.169 236.054H105.003V10.7755C109.164 12.1973 112.169 16.1361 112.169 20.7755V236.054ZM122.366 168.082C122.366 168.082 122.393 168.082 122.413 168.082C123.025 168.082 123.637 168.258 124.188 168.605L125.377 169.347C127.689 170.789 128.967 173.313 128.566 175.585L126.941 180.272C125.479 179.823 123.936 179.83 122.475 180.293L122.373 180.027V168.088L122.366 168.082ZM131.774 190.211L139.001 191.088C139.959 191.224 140.829 191.748 141.387 192.531C141.883 193.224 142.067 194.034 141.917 194.823C141.727 195.83 141.115 196.653 140.197 197.136L138.96 197.796C136.553 199.075 133.732 198.925 131.958 197.429L128.504 194.041C130 193.177 131.156 191.83 131.774 190.204V190.211ZM122.366 185.027C122.984 184.435 123.814 184.068 124.731 184.068C126.621 184.068 128.158 185.605 128.158 187.497C128.158 189.388 126.621 190.925 124.731 190.925C123.814 190.925 122.978 190.558 122.366 189.966V185.034V185.027ZM122.407 194.68C122.842 194.823 123.283 194.918 123.732 194.98L129.082 200.388C129.123 200.429 129.157 200.463 129.205 200.503C130.911 201.98 133.182 202.789 135.595 202.789C137.424 202.789 139.259 202.327 140.911 201.449L142.148 200.796C144.16 199.728 145.561 197.837 145.989 195.605C146.356 193.694 145.921 191.748 144.759 190.129C143.542 188.429 141.659 187.286 139.585 186.993L132.128 185.932C131.903 184.878 131.462 183.898 130.816 183.02L132.57 176.612C132.583 176.558 132.597 176.503 132.604 176.449C133.365 172.463 131.339 168.197 127.566 165.837L126.377 165.095C125.153 164.327 123.759 163.946 122.366 163.952V162.258C122.889 162.224 123.413 162.204 123.943 162.204C137.525 162.204 148.572 173.259 148.572 186.85C148.572 200.442 137.525 211.497 123.943 211.497C123.413 211.497 122.889 211.476 122.366 211.442V194.735L122.407 194.687V194.68ZM187.512 234.959H168.62L170.578 232H187.512V234.959ZM194.086 223.327H122.366V217.367C122.889 217.395 123.413 217.415 123.943 217.415C140.782 217.415 154.48 203.707 154.48 186.857C154.48 170.007 140.782 156.299 123.943 156.299C123.413 156.299 122.889 156.313 122.366 156.347V150.388H194.086V223.34V223.327Z" fill="white"/>
</g>
<path opacity="0.5" d="M184.038 157.163H168.273C166.642 157.163 165.316 158.49 165.316 160.123V179.837C165.316 181.469 166.642 182.796 168.273 182.796H184.038C185.67 182.796 186.995 181.469 186.995 179.837V160.123C186.995 158.49 185.67 157.163 184.038 157.163ZM181.088 176.878H171.237V163.075H181.088V176.878Z" fill="white"/>
</g>
<defs>
<clipPath id="clip0_214_5201">
<rect width="200" height="246.258" fill="white"/>
</clipPath>
</defs>
</svg>
