<svg width="16" height="16" viewBox="0 0 16 16" fill="none" xmlns="http://www.w3.org/2000/svg">
<path fill-rule="evenodd" clip-rule="evenodd" d="M15.2888 0.439345C14.7031 -0.146441 13.7533 -0.146441 13.1675 0.439345L7.8641 5.74277L2.56069 0.43936C1.97491 -0.146426 1.02516 -0.146426 0.439373 0.43936C-0.146414 1.02515 -0.146413 1.97489 0.439372 2.56068L5.74278 7.86409L0.439598 13.1673C-0.146188 13.7531 -0.146188 14.7028 0.439598 15.2886C1.02538 15.8744 1.97513 15.8744 2.56092 15.2886L7.8641 9.98541L13.1673 15.2886C13.7531 15.8744 14.7028 15.8744 15.2886 15.2886C15.8744 14.7028 15.8744 13.7531 15.2886 13.1673L9.98542 7.86409L15.2888 2.56067C15.8746 1.97488 15.8746 1.02513 15.2888 0.439345Z" fill="white"/>
</svg>
