<svg width="32" height="32" viewBox="0 0 32 32" fill="none" xmlns="http://www.w3.org/2000/svg">
<path d="M8.62851 7.37143C8.28138 7.0243 7.71857 7.0243 7.37143 7.37143C7.0243 7.71857 7.0243 8.28138 7.37143 8.62851L14.7429 16L7.37143 23.3714C7.0243 23.7186 7.0243 24.2814 7.37143 24.6285C7.71857 24.9756 8.28138 24.9756 8.62851 24.6285L16 17.2571L23.3714 24.6285C23.7186 24.9756 24.2814 24.9756 24.6285 24.6285C24.9756 24.2814 24.9756 23.7186 24.6285 23.3714L17.2571 16L24.6285 8.62851C24.9756 8.28138 24.9756 7.71857 24.6285 7.37143C24.2814 7.0243 23.7186 7.0243 23.3714 7.37143L16 14.7429L8.62851 7.37143Z" fill="#212121"/>
</svg>
