<svg width="24" height="24" viewBox="0 0 24 24" fill="none" xmlns="http://www.w3.org/2000/svg">
<g clip-path="url(#clip0_84_798)">
<path d="M13.7498 3.02004C14.0298 3.02004 14.2698 3.24004 14.2998 3.52004L14.5298 5.34004L14.5998 5.86004L15.0598 6.10004C15.2298 6.19004 15.3998 6.29004 15.5698 6.40004L16.0098 6.69004L16.4998 6.48004L18.2098 5.76004C18.2798 5.73004 18.3498 5.72004 18.4198 5.72004C18.6198 5.72004 18.7998 5.83004 18.8998 6.00004L20.6498 9.02004C20.7898 9.27004 20.7298 9.58004 20.4998 9.75004L19.0298 10.86L18.6098 11.18L18.6298 11.7C18.6298 11.8 18.6298 11.9 18.6298 12C18.6298 12.1 18.6298 12.19 18.6298 12.29L18.5998 12.82L19.0198 13.14L20.4798 14.25C20.7098 14.43 20.7698 14.73 20.6298 14.98L18.8798 18.01C18.7798 18.18 18.5998 18.29 18.3998 18.29C18.3298 18.29 18.2498 18.28 18.1798 18.24L16.4798 17.52L15.9898 17.31L15.5498 17.59C15.3898 17.7 15.2198 17.8 15.0398 17.89L14.5798 18.13L14.5098 18.65L14.2798 20.48C14.2498 20.76 13.9998 20.97 13.7298 20.97H10.2398C9.95984 20.97 9.71984 20.75 9.68984 20.47L9.45984 18.65L9.38984 18.13L8.92984 17.89C8.75984 17.8 8.58984 17.7 8.41984 17.59L7.97984 17.31L7.48984 17.52L5.77984 18.24C5.70984 18.27 5.63984 18.28 5.56984 18.28C5.36984 18.28 5.18984 18.17 5.08984 18L3.33984 14.98C3.19984 14.73 3.25984 14.42 3.48984 14.25L4.95984 13.14L5.37984 12.82L5.35984 12.3C5.35984 12.2 5.35984 12.1 5.35984 12C5.35984 11.9 5.35984 11.81 5.35984 11.71L5.37984 11.19L4.95984 10.87L3.48984 9.76004C3.25984 9.58004 3.19984 9.28004 3.33984 9.03004L5.08984 6.00004C5.18984 5.83004 5.36984 5.72004 5.56984 5.72004C5.63984 5.72004 5.71984 5.73004 5.78984 5.77004L7.48984 6.49004L7.97984 6.70004L8.41984 6.42004C8.57984 6.31004 8.74984 6.21004 8.92984 6.12004L9.38984 5.88004L9.45984 5.36004L9.68984 3.53004C9.71984 3.25004 9.96984 3.04004 10.2498 3.04004H13.7398M13.7398 2.04004H10.2498C9.45984 2.04004 8.78984 2.63004 8.69984 3.41004L8.46984 5.24004C8.26984 5.35004 8.06984 5.46004 7.87984 5.58004L6.17984 4.86004C5.97984 4.77004 5.76984 4.73004 5.56984 4.73004C5.02984 4.73004 4.50984 5.02004 4.21984 5.51004L2.46984 8.54004C2.07984 9.23004 2.24984 10.08 2.86984 10.56L4.34984 11.68C4.34984 11.79 4.34984 11.9 4.34984 12.01C4.34984 12.12 4.34984 12.24 4.34984 12.35L2.87984 13.46C2.24984 13.94 2.08984 14.81 2.46984 15.48L4.21984 18.5C4.49984 19 5.01984 19.28 5.56984 19.28C5.76984 19.28 5.97984 19.24 6.17984 19.15L7.87984 18.43C8.06984 18.55 8.25984 18.67 8.46984 18.77L8.69984 20.59C8.78984 21.37 9.45984 21.96 10.2498 21.96H13.7398C14.5198 21.96 15.1898 21.37 15.2898 20.59L15.5198 18.76C15.7198 18.65 15.9198 18.54 16.1098 18.42L17.8098 19.14C18.0098 19.23 18.2198 19.27 18.4198 19.27C18.9598 19.27 19.4798 18.98 19.7698 18.49L21.5198 15.47C21.9098 14.78 21.7398 13.93 21.1198 13.45L19.6498 12.34C19.6498 12.22 19.6498 12.11 19.6498 11.99C19.6498 11.87 19.6498 11.76 19.6498 11.65L21.1198 10.54C21.7498 10.06 21.9098 9.19004 21.5298 8.52004L19.7798 5.50004C19.4998 5.00004 18.9798 4.72004 18.4298 4.72004C18.2298 4.72004 18.0198 4.76004 17.8198 4.85004L16.1198 5.57004C15.9298 5.45004 15.7398 5.33004 15.5298 5.23004L15.2998 3.41004C15.2098 2.63004 14.5398 2.04004 13.7498 2.04004H13.7398Z" fill="black"/>
<path d="M11.9998 9.78003C13.2198 9.78003 14.2198 10.77 14.2198 12C14.2198 13.23 13.2298 14.22 11.9998 14.22C10.7698 14.22 9.77979 13.23 9.77979 12C9.77979 10.77 10.7698 9.78003 11.9998 9.78003ZM11.9998 8.78003C10.2198 8.78003 8.77979 10.22 8.77979 12C8.77979 13.78 10.2198 15.22 11.9998 15.22C13.7798 15.22 15.2198 13.78 15.2198 12C15.2198 10.22 13.7798 8.78003 11.9998 8.78003Z" fill="black"/>
</g>
<defs>
<clipPath id="clip0_84_798">
<rect width="24" height="24" fill="white"/>
</clipPath>
</defs>
</svg>
