<svg width="18" height="18" viewBox="0 0 18 18" fill="none" xmlns="http://www.w3.org/2000/svg">
<path d="M9 17.0001C13.4183 17.0001 17 13.4183 17 9.00006C17 4.58178 13.4183 1.00006 9 1.00006C4.58172 1.00006 1 4.58178 1 9.00006C1 13.4183 4.58172 17.0001 9 17.0001Z" stroke="#757575" stroke-linecap="round" stroke-linejoin="round"/>
<path d="M8.9091 4.59861C8.9091 5.20508 9.37739 5.69715 9.95455 5.69715C10.5317 5.69715 11 5.20508 11 4.59861C11 3.99214 10.5317 3.50006 9.95455 3.50006C9.37739 3.50006 8.9091 3.99214 8.9091 4.59861Z" fill="#757575"/>
<path d="M7.31932 7.35859V7.62732C8.55313 7.6019 8.23172 8.39539 7.98115 9.34505C7.67184 10.5235 7.10851 11.9943 7.01001 13.051C6.91324 14.106 7.53533 14.5037 8.13495 14.5C8.98513 14.4946 9.70226 13.6194 10.0772 13.1037C10.1723 12.973 10.8548 12.1922 10.4349 12.0832C10.0168 11.9743 9.64696 13.5449 9.00414 13.318C8.94366 13.2944 8.94884 13.3034 8.90219 13.2653C9.10091 11.0192 9.97183 9.02002 10.3848 6.82112H10.2829C9.4275 7.13888 8.14877 7.01177 7.31932 7.35859Z" fill="#757575"/>
</svg>
