<svg width="46" height="46" viewBox="0 0 46 46" fill="none" xmlns="http://www.w3.org/2000/svg">
<g clip-path="url(#clip0_586_17174)">
<path d="M46 23C46 35.7025 35.7025 46 23 46C10.2975 46 0 35.7025 0 23C0 10.2975 10.2975 0 23 0C35.7025 0 46 10.2975 46 23Z" fill="white" fill-opacity="0.2"/>
<path fill-rule="evenodd" clip-rule="evenodd" d="M30.2888 15.4393C29.703 14.8536 28.7533 14.8536 28.1675 15.4393L22.8641 20.7428L17.5607 15.4394C16.9749 14.8536 16.0251 14.8536 15.4393 15.4394C14.8536 16.0251 14.8536 16.9749 15.4393 17.5607L20.7427 22.8641L15.4396 28.1673C14.8538 28.753 14.8538 29.7028 15.4396 30.2886C16.0254 30.8744 16.9751 30.8744 17.5609 30.2886L22.8641 24.9854L28.1673 30.2886C28.753 30.8744 29.7028 30.8744 30.2886 30.2886C30.8744 29.7028 30.8744 28.7531 30.2886 28.1673L24.9854 22.8641L30.2888 17.5607C30.8746 16.9749 30.8746 16.0251 30.2888 15.4393Z" fill="white"/>
</g>
<defs>
<clipPath id="clip0_586_17174">
<rect width="46" height="46" fill="white"/>
</clipPath>
</defs>
</svg>
