<svg width="12" height="12" viewBox="0 0 12 12" fill="none" xmlns="http://www.w3.org/2000/svg">
<path d="M3.23572 2.76426C3.10555 2.63408 2.89449 2.63408 2.76432 2.76426C2.63414 2.89443 2.63414 3.10549 2.76432 3.23566L5.52862 5.99996L2.76432 8.76426C2.63414 8.89443 2.63414 9.10549 2.76432 9.23566C2.89449 9.36584 3.10555 9.36584 3.23572 9.23566L6.00002 6.47136L8.76432 9.23566C8.89449 9.36584 9.10555 9.36584 9.23572 9.23566C9.3659 9.10549 9.3659 8.89443 9.23572 8.76426L6.47142 5.99996L9.23572 3.23566C9.3659 3.10549 9.3659 2.89443 9.23572 2.76426C9.10555 2.63408 8.89449 2.63408 8.76432 2.76426L6.00002 5.52855L3.23572 2.76426Z" fill="#212121"/>
</svg>
