<svg width="275" height="39" viewBox="0 0 275 39" fill="none" xmlns="http://www.w3.org/2000/svg">
<path d="M1.078 1.78H4.606L7.98 10.362H8.106V1.78H10.15V11.93H6.622L3.248 3.348H3.122V11.93H1.078V1.78ZM11.7426 8.374C11.7426 7.142 12.0366 6.22267 12.6246 5.616C13.2126 5.00933 14.1506 4.706 15.4386 4.706C16.0919 4.706 16.6333 4.79467 17.0626 4.972C17.5013 5.14 17.8513 5.38733 18.1126 5.714C18.3739 6.03133 18.5606 6.42333 18.6726 6.89C18.7846 7.34733 18.8406 7.86533 18.8406 8.444C18.8406 9.676 18.5419 10.5953 17.9446 11.202C17.3566 11.7993 16.4139 12.098 15.1166 12.098C14.4633 12.098 13.9173 12.014 13.4786 11.846C13.0493 11.6687 12.7039 11.4213 12.4426 11.104C12.1906 10.7773 12.0086 10.3853 11.8966 9.928C11.7939 9.47067 11.7426 8.95267 11.7426 8.374ZM15.4386 6.05C14.7946 6.05 14.3559 6.25533 14.1226 6.666C13.8986 7.07667 13.7866 7.688 13.7866 8.5C13.7866 8.808 13.8053 9.09733 13.8426 9.368C13.8799 9.63867 13.9453 9.87667 14.0386 10.082C14.1413 10.2873 14.2766 10.4507 14.4446 10.572C14.6219 10.684 14.8459 10.74 15.1166 10.74C15.7793 10.74 16.2273 10.5347 16.4606 10.124C16.6939 9.71333 16.8106 9.11133 16.8106 8.318C16.8106 8.01 16.7919 7.72067 16.7546 7.45C16.7173 7.17 16.6473 6.92733 16.5446 6.722C16.4513 6.51667 16.3113 6.35333 16.1246 6.232C15.9473 6.11067 15.7186 6.05 15.4386 6.05ZM20.171 1.78H22.201V3.39H20.171V1.78ZM20.185 4.874H22.187V11.93H20.185V4.874ZM25.2918 8.906C25.0491 8.83133 24.8204 8.74267 24.6058 8.64C24.3911 8.528 24.2044 8.39733 24.0458 8.248C23.8871 8.08933 23.7611 7.90267 23.6678 7.688C23.5838 7.464 23.5418 7.20267 23.5418 6.904C23.5418 6.16667 23.8124 5.616 24.3538 5.252C24.9044 4.888 25.6558 4.706 26.6078 4.706C27.2051 4.706 27.7231 4.75267 28.1618 4.846C28.6098 4.93933 29.0298 5.06533 29.4218 5.224L28.8338 6.638C28.5351 6.47 28.1944 6.33933 27.8118 6.246C27.4291 6.15267 27.0278 6.106 26.6078 6.106C26.2344 6.106 25.9451 6.15733 25.7398 6.26C25.5344 6.35333 25.4318 6.498 25.4318 6.694C25.4318 6.862 25.5064 7.002 25.6558 7.114C25.8144 7.21667 26.0571 7.31467 26.3838 7.408C26.4491 7.436 26.5378 7.46867 26.6498 7.506C26.7618 7.54333 26.8784 7.58067 26.9998 7.618C27.1304 7.65533 27.2518 7.69267 27.3638 7.73C27.4851 7.758 27.5878 7.78133 27.6718 7.8C27.9144 7.87467 28.1431 7.96333 28.3578 8.066C28.5724 8.15933 28.7591 8.28533 28.9178 8.444C29.0764 8.59333 29.2024 8.78467 29.2958 9.018C29.3891 9.242 29.4358 9.51267 29.4358 9.83C29.4358 10.586 29.1604 11.1553 28.6098 11.538C28.0684 11.9113 27.3171 12.098 26.3558 12.098C25.7118 12.098 25.1658 12.0467 24.7178 11.944C24.2698 11.8413 23.8498 11.7153 23.4578 11.566L24.0598 10.152C24.3491 10.3107 24.6804 10.4367 25.0538 10.53C25.4364 10.6233 25.8658 10.67 26.3418 10.67C26.7058 10.67 26.9904 10.6233 27.1958 10.53C27.4011 10.4273 27.5038 10.264 27.5038 10.04C27.5038 9.732 27.1911 9.48 26.5658 9.284L25.2918 8.906ZM32.4627 8.878C32.4627 9.354 32.5561 9.75067 32.7427 10.068C32.9947 10.4787 33.4987 10.684 34.2547 10.684C34.5347 10.684 34.7821 10.6653 34.9967 10.628C35.2114 10.5907 35.4074 10.544 35.5847 10.488C35.7621 10.432 35.9254 10.3713 36.0747 10.306C36.2334 10.2313 36.3874 10.1613 36.5367 10.096L36.9147 11.342C36.7747 11.426 36.5927 11.5147 36.3687 11.608C36.1541 11.7013 35.9114 11.7853 35.6407 11.86C35.3794 11.9253 35.0994 11.9813 34.8007 12.028C34.5114 12.0747 34.2221 12.098 33.9327 12.098C32.6354 12.098 31.7207 11.7853 31.1887 11.16C30.6661 10.5253 30.4047 9.592 30.4047 8.36C30.4047 5.924 31.5714 4.706 33.9047 4.706C34.5487 4.706 35.0714 4.79467 35.4727 4.972C35.8834 5.14 36.2007 5.378 36.4247 5.686C36.6581 5.994 36.8167 6.358 36.9007 6.778C36.9847 7.198 37.0267 7.66 37.0267 8.164V8.878H32.4627ZM34.9547 7.576C34.9547 7.072 34.8707 6.68467 34.7027 6.414C34.5441 6.134 34.2687 5.994 33.8767 5.994C33.4287 5.994 33.0927 6.106 32.8687 6.33C32.6447 6.54467 32.5187 6.862 32.4907 7.282C32.4814 7.32867 32.4767 7.37533 32.4767 7.422C32.4767 7.46867 32.4767 7.52 32.4767 7.576H34.9547ZM47.4802 6.722C47.2842 6.48867 47.0696 6.32533 46.8362 6.232C46.6122 6.13867 46.3556 6.092 46.0662 6.092C45.4502 6.092 44.9976 6.27867 44.7082 6.652C44.4282 7.016 44.2882 7.63667 44.2882 8.514C44.2882 9.214 44.4096 9.75533 44.6522 10.138C44.9042 10.5207 45.3522 10.712 45.9962 10.712C46.4162 10.712 46.7802 10.6653 47.0882 10.572C47.3962 10.4787 47.7136 10.348 48.0402 10.18L48.4042 11.454C48.1522 11.6313 47.7976 11.7853 47.3402 11.916C46.8922 12.0373 46.3742 12.098 45.7862 12.098C45.1422 12.098 44.5962 12.0233 44.1482 11.874C43.7002 11.7153 43.3362 11.4867 43.0562 11.188C42.7762 10.88 42.5709 10.5067 42.4402 10.068C42.3189 9.62 42.2582 9.102 42.2582 8.514C42.2582 7.21667 42.5802 6.26 43.2242 5.644C43.8682 5.01867 44.8202 4.706 46.0802 4.706C46.6122 4.706 47.1022 4.79467 47.5502 4.972C48.0076 5.14 48.3576 5.36867 48.6002 5.658L47.4802 6.722ZM49.577 5.434C49.9503 5.22867 50.4076 5.056 50.949 4.916C51.4996 4.776 52.055 4.706 52.615 4.706C53.1656 4.706 53.623 4.75733 53.987 4.86C54.3603 4.95333 54.659 5.11667 54.883 5.35C55.107 5.574 55.2656 5.87733 55.359 6.26C55.4523 6.64267 55.499 7.114 55.499 7.674V9.858C55.499 10.138 55.555 10.3293 55.667 10.432C55.779 10.5347 55.9423 10.586 56.157 10.586V11.93C55.9796 11.9673 55.737 11.986 55.429 11.986C55.0276 11.986 54.6963 11.93 54.435 11.818C54.1736 11.706 53.9636 11.5287 53.805 11.286C53.5436 11.5287 53.217 11.7247 52.825 11.874C52.433 12.0233 52.0596 12.098 51.705 12.098C51.1916 12.098 50.7763 12.0373 50.459 11.916C50.1416 11.7853 49.8943 11.6173 49.717 11.412C49.549 11.2067 49.437 10.9733 49.381 10.712C49.325 10.4413 49.297 10.1613 49.297 9.872C49.297 9.40533 49.3716 9.02267 49.521 8.724C49.6703 8.42533 49.8803 8.192 50.151 8.024C50.431 7.856 50.767 7.73933 51.159 7.674C51.551 7.60867 51.985 7.576 52.461 7.576C52.6196 7.576 52.7923 7.58067 52.979 7.59C53.1656 7.59 53.3336 7.59467 53.483 7.604V7.282C53.483 6.89 53.3756 6.596 53.161 6.4C52.9463 6.204 52.5963 6.106 52.111 6.106C51.7096 6.106 51.327 6.15733 50.963 6.26C50.599 6.35333 50.2676 6.484 49.969 6.652L49.577 5.434ZM53.483 8.92C53.3056 8.90133 53.133 8.892 52.965 8.892C52.797 8.88267 52.6336 8.878 52.475 8.878C52.055 8.878 51.761 8.95733 51.593 9.116C51.4343 9.27467 51.355 9.49867 51.355 9.788C51.355 10.096 51.411 10.334 51.523 10.502C51.6443 10.6607 51.873 10.74 52.209 10.74C52.377 10.74 52.5823 10.7073 52.825 10.642C53.077 10.5673 53.2963 10.4413 53.483 10.264V8.92ZM57.1125 1.486L59.1005 1.22V9.634C59.1005 9.84867 59.1145 10.0213 59.1425 10.152C59.1705 10.2733 59.2125 10.3667 59.2685 10.432C59.3338 10.4973 59.4178 10.5393 59.5205 10.558C59.6231 10.5767 59.7538 10.586 59.9125 10.586V11.972C59.8845 11.9813 59.8285 11.986 59.7445 11.986C59.6885 12.0047 59.6278 12.014 59.5625 12.014H59.3945C58.9651 12.014 58.6011 11.9627 58.3025 11.86C58.0131 11.7573 57.7798 11.608 57.6025 11.412C57.4251 11.2067 57.2991 10.9593 57.2245 10.67C57.1498 10.3807 57.1125 10.0493 57.1125 9.676V1.486ZM65.8142 6.722C65.6182 6.48867 65.4036 6.32533 65.1702 6.232C64.9462 6.13867 64.6896 6.092 64.4002 6.092C63.7842 6.092 63.3316 6.27867 63.0422 6.652C62.7622 7.016 62.6222 7.63667 62.6222 8.514C62.6222 9.214 62.7436 9.75533 62.9862 10.138C63.2382 10.5207 63.6862 10.712 64.3302 10.712C64.7502 10.712 65.1142 10.6653 65.4222 10.572C65.7302 10.4787 66.0476 10.348 66.3742 10.18L66.7382 11.454C66.4862 11.6313 66.1316 11.7853 65.6742 11.916C65.2262 12.0373 64.7082 12.098 64.1202 12.098C63.4762 12.098 62.9302 12.0233 62.4822 11.874C62.0342 11.7153 61.6702 11.4867 61.3902 11.188C61.1102 10.88 60.9049 10.5067 60.7742 10.068C60.6529 9.62 60.5922 9.102 60.5922 8.514C60.5922 7.21667 60.9142 6.26 61.5582 5.644C62.2022 5.01867 63.1542 4.706 64.4142 4.706C64.9462 4.706 65.4362 4.79467 65.8842 4.972C66.3416 5.14 66.6916 5.36867 66.9342 5.658L65.8142 6.722ZM67.9669 4.874H69.9689V9.2C69.9689 9.38667 69.9736 9.564 69.9829 9.732C70.0016 9.9 70.0389 10.0447 70.0949 10.166C70.1603 10.2873 70.2536 10.3853 70.3749 10.46C70.4963 10.5253 70.6643 10.558 70.8789 10.558C71.2056 10.558 71.4809 10.516 71.7049 10.432C71.9009 10.3573 72.0876 10.2593 72.2649 10.138V4.874H74.2669V10.04L74.4069 11.93H72.5589L72.4749 11.454C72.2603 11.5847 72.0036 11.7013 71.7049 11.804C71.1823 12 70.6876 12.098 70.2209 12.098C69.7636 12.098 69.3856 12.042 69.0869 11.93C68.7976 11.8087 68.5689 11.6453 68.4009 11.44C68.2329 11.2253 68.1163 10.9687 68.0509 10.67C67.9949 10.362 67.9669 10.0167 67.9669 9.634V4.874ZM75.8703 1.486L77.8583 1.22V9.634C77.8583 9.84867 77.8723 10.0213 77.9003 10.152C77.9283 10.2733 77.9703 10.3667 78.0263 10.432C78.0916 10.4973 78.1756 10.5393 78.2783 10.558C78.3809 10.5767 78.5116 10.586 78.6703 10.586V11.972C78.6423 11.9813 78.5863 11.986 78.5023 11.986C78.4463 12.0047 78.3856 12.014 78.3203 12.014H78.1523C77.7229 12.014 77.3589 11.9627 77.0603 11.86C76.7709 11.7573 76.5376 11.608 76.3603 11.412C76.1829 11.2067 76.0569 10.9593 75.9823 10.67C75.9076 10.3807 75.8703 10.0493 75.8703 9.676V1.486ZM79.532 5.434C79.9054 5.22867 80.3627 5.056 80.904 4.916C81.4547 4.776 82.01 4.706 82.57 4.706C83.1207 4.706 83.578 4.75733 83.942 4.86C84.3154 4.95333 84.614 5.11667 84.838 5.35C85.062 5.574 85.2207 5.87733 85.314 6.26C85.4074 6.64267 85.454 7.114 85.454 7.674V9.858C85.454 10.138 85.51 10.3293 85.622 10.432C85.734 10.5347 85.8974 10.586 86.112 10.586V11.93C85.9347 11.9673 85.692 11.986 85.384 11.986C84.9827 11.986 84.6514 11.93 84.39 11.818C84.1287 11.706 83.9187 11.5287 83.76 11.286C83.4987 11.5287 83.172 11.7247 82.78 11.874C82.388 12.0233 82.0147 12.098 81.66 12.098C81.1467 12.098 80.7314 12.0373 80.414 11.916C80.0967 11.7853 79.8494 11.6173 79.672 11.412C79.504 11.2067 79.392 10.9733 79.336 10.712C79.28 10.4413 79.252 10.1613 79.252 9.872C79.252 9.40533 79.3267 9.02267 79.476 8.724C79.6254 8.42533 79.8354 8.192 80.106 8.024C80.386 7.856 80.722 7.73933 81.114 7.674C81.506 7.60867 81.94 7.576 82.416 7.576C82.5747 7.576 82.7474 7.58067 82.934 7.59C83.1207 7.59 83.2887 7.59467 83.438 7.604V7.282C83.438 6.89 83.3307 6.596 83.116 6.4C82.9014 6.204 82.5514 6.106 82.066 6.106C81.6647 6.106 81.282 6.15733 80.918 6.26C80.554 6.35333 80.2227 6.484 79.924 6.652L79.532 5.434ZM83.438 8.92C83.2607 8.90133 83.088 8.892 82.92 8.892C82.752 8.88267 82.5887 8.878 82.43 8.878C82.01 8.878 81.716 8.95733 81.548 9.116C81.3894 9.27467 81.31 9.49867 81.31 9.788C81.31 10.096 81.366 10.334 81.478 10.502C81.5994 10.6607 81.828 10.74 82.164 10.74C82.332 10.74 82.5374 10.7073 82.78 10.642C83.032 10.5673 83.2514 10.4413 83.438 10.264V8.92ZM87.4775 3.558L89.4795 3.194V4.874H91.9015V6.344H89.4795V9.228C89.4795 9.40533 89.4841 9.57333 89.4935 9.732C89.5121 9.89067 89.5495 10.0307 89.6055 10.152C89.6708 10.2733 89.7641 10.3713 89.8855 10.446C90.0161 10.5207 90.1888 10.558 90.4035 10.558C90.6928 10.558 90.9541 10.53 91.1875 10.474C91.4208 10.4087 91.6448 10.32 91.8595 10.208L92.1675 11.524C91.4488 11.9067 90.6461 12.098 89.7595 12.098C89.2928 12.098 88.9101 12.042 88.6115 11.93C88.3221 11.8087 88.0935 11.6453 87.9255 11.44C87.7575 11.2253 87.6408 10.9687 87.5755 10.67C87.5195 10.362 87.4915 10.0213 87.4915 9.648V6.344H86.2875V5.042L87.4775 4.902V3.558ZM93.1515 1.78H95.1815V3.39H93.1515V1.78ZM93.1655 4.874H95.1675V11.93H93.1655V4.874ZM96.5082 8.374C96.5082 7.142 96.8022 6.22267 97.3902 5.616C97.9782 5.00933 98.9162 4.706 100.204 4.706C100.858 4.706 101.399 4.79467 101.828 4.972C102.267 5.14 102.617 5.38733 102.878 5.714C103.14 6.03133 103.326 6.42333 103.438 6.89C103.55 7.34733 103.606 7.86533 103.606 8.444C103.606 9.676 103.308 10.5953 102.71 11.202C102.122 11.7993 101.18 12.098 99.8822 12.098C99.2289 12.098 98.6829 12.014 98.2442 11.846C97.8149 11.6687 97.4696 11.4213 97.2082 11.104C96.9562 10.7773 96.7742 10.3853 96.6622 9.928C96.5596 9.47067 96.5082 8.95267 96.5082 8.374ZM100.204 6.05C99.5602 6.05 99.1216 6.25533 98.8882 6.666C98.6642 7.07667 98.5522 7.688 98.5522 8.5C98.5522 8.808 98.5709 9.09733 98.6082 9.368C98.6456 9.63867 98.7109 9.87667 98.8042 10.082C98.9069 10.2873 99.0422 10.4507 99.2102 10.572C99.3876 10.684 99.6116 10.74 99.8822 10.74C100.545 10.74 100.993 10.5347 101.226 10.124C101.46 9.71333 101.576 9.11133 101.576 8.318C101.576 8.01 101.558 7.72067 101.52 7.45C101.483 7.17 101.413 6.92733 101.31 6.722C101.217 6.51667 101.077 6.35333 100.89 6.232C100.713 6.11067 100.484 6.05 100.204 6.05ZM104.811 4.874H106.687L106.729 5.364C106.971 5.20533 107.228 5.07933 107.499 4.986C108.059 4.79933 108.567 4.706 109.025 4.706C109.482 4.706 109.855 4.76667 110.145 4.888C110.443 5 110.681 5.16333 110.859 5.378C111.036 5.58333 111.157 5.84 111.223 6.148C111.297 6.456 111.335 6.79667 111.335 7.17V11.93H109.333V7.604C109.333 7.42667 109.323 7.25867 109.305 7.1C109.295 6.932 109.258 6.78733 109.193 6.666C109.127 6.54467 109.029 6.44667 108.899 6.372C108.768 6.29733 108.591 6.26 108.367 6.26C108.04 6.26 107.76 6.302 107.527 6.386C107.303 6.47933 107.111 6.57733 106.953 6.68V11.93H104.951V6.764L104.811 4.874ZM116.545 4.874H117.553V4.062C117.553 3.53 117.628 3.082 117.777 2.718C117.926 2.354 118.136 2.06 118.407 1.836C118.678 1.612 119 1.45333 119.373 1.36C119.746 1.26667 120.152 1.22 120.591 1.22C120.908 1.22 121.216 1.24333 121.515 1.29C121.814 1.32733 122.084 1.39733 122.327 1.5L121.921 2.9C121.594 2.76 121.249 2.69 120.885 2.69C120.381 2.69 120.031 2.79733 119.835 3.012C119.648 3.21733 119.555 3.53 119.555 3.95V4.874H121.893V6.344H119.569V11.93H117.567V6.344H116.545V4.874ZM122.293 8.374C122.293 7.142 122.587 6.22267 123.175 5.616C123.763 5.00933 124.701 4.706 125.989 4.706C126.643 4.706 127.184 4.79467 127.613 4.972C128.052 5.14 128.402 5.38733 128.663 5.714C128.925 6.03133 129.111 6.42333 129.223 6.89C129.335 7.34733 129.391 7.86533 129.391 8.444C129.391 9.676 129.093 10.5953 128.495 11.202C127.907 11.7993 126.965 12.098 125.667 12.098C125.014 12.098 124.468 12.014 124.029 11.846C123.6 11.6687 123.255 11.4213 122.993 11.104C122.741 10.7773 122.559 10.3853 122.447 9.928C122.345 9.47067 122.293 8.95267 122.293 8.374ZM125.989 6.05C125.345 6.05 124.907 6.25533 124.673 6.666C124.449 7.07667 124.337 7.688 124.337 8.5C124.337 8.808 124.356 9.09733 124.393 9.368C124.431 9.63867 124.496 9.87667 124.589 10.082C124.692 10.2873 124.827 10.4507 124.995 10.572C125.173 10.684 125.397 10.74 125.667 10.74C126.33 10.74 126.778 10.5347 127.011 10.124C127.245 9.71333 127.361 9.11133 127.361 8.318C127.361 8.01 127.343 7.72067 127.305 7.45C127.268 7.17 127.198 6.92733 127.095 6.722C127.002 6.51667 126.862 6.35333 126.675 6.232C126.498 6.11067 126.269 6.05 125.989 6.05ZM130.54 4.874H132.388L132.5 5.63C132.658 5.41533 132.854 5.24267 133.088 5.112C133.545 4.84133 134.021 4.706 134.516 4.706C134.777 4.706 135.006 4.734 135.202 4.79C135.407 4.83667 135.58 4.888 135.72 4.944L135.258 6.512C135.015 6.36267 134.712 6.288 134.348 6.288C133.974 6.288 133.615 6.38133 133.27 6.568C133.176 6.61467 133.083 6.67067 132.99 6.736C132.906 6.80133 132.826 6.88067 132.752 6.974V11.93H130.75V6.876L130.54 4.874ZM136.406 4.874H138.282L138.31 5.35C138.506 5.21 138.726 5.08867 138.968 4.986C139.444 4.79933 139.911 4.706 140.368 4.706C140.844 4.706 141.218 4.76667 141.488 4.888C141.759 4.99067 141.974 5.13533 142.132 5.322C142.366 5.19133 142.594 5.07933 142.818 4.986C143.07 4.89267 143.332 4.82267 143.602 4.776C143.873 4.72933 144.125 4.706 144.358 4.706C144.816 4.706 145.189 4.76667 145.478 4.888C145.777 5 146.01 5.16333 146.178 5.378C146.356 5.58333 146.477 5.84 146.542 6.148C146.608 6.456 146.64 6.79667 146.64 7.17V11.93H144.666V7.604C144.666 7.42667 144.662 7.25867 144.652 7.1C144.643 6.932 144.61 6.78733 144.554 6.666C144.498 6.54467 144.41 6.44667 144.288 6.372C144.167 6.29733 143.994 6.26 143.77 6.26C143.453 6.26 143.178 6.302 142.944 6.386C142.879 6.42333 142.814 6.456 142.748 6.484C142.683 6.512 142.618 6.54 142.552 6.568C142.58 6.764 142.594 6.96467 142.594 7.17V11.93H140.606V7.604C140.606 7.42667 140.597 7.25867 140.578 7.1C140.569 6.932 140.536 6.78733 140.48 6.666C140.424 6.54467 140.336 6.44667 140.214 6.372C140.102 6.29733 139.939 6.26 139.724 6.26C139.398 6.26 139.122 6.302 138.898 6.386L138.534 6.568V11.93H136.546V6.764L136.406 4.874ZM148.152 4.874H150.154V9.2C150.154 9.38667 150.159 9.564 150.168 9.732C150.187 9.9 150.224 10.0447 150.28 10.166C150.346 10.2873 150.439 10.3853 150.56 10.46C150.682 10.5253 150.85 10.558 151.064 10.558C151.391 10.558 151.666 10.516 151.89 10.432C152.086 10.3573 152.273 10.2593 152.45 10.138V4.874H154.452V10.04L154.592 11.93H152.744L152.66 11.454C152.446 11.5847 152.189 11.7013 151.89 11.804C151.368 12 150.873 12.098 150.406 12.098C149.949 12.098 149.571 12.042 149.272 11.93C148.983 11.8087 148.754 11.6453 148.586 11.44C148.418 11.2253 148.302 10.9687 148.236 10.67C148.18 10.362 148.152 10.0167 148.152 9.634V4.874ZM156.056 1.486L158.044 1.22V9.634C158.044 9.84867 158.058 10.0213 158.086 10.152C158.114 10.2733 158.156 10.3667 158.212 10.432C158.277 10.4973 158.361 10.5393 158.464 10.558C158.566 10.5767 158.697 10.586 158.856 10.586V11.972C158.828 11.9813 158.772 11.986 158.688 11.986C158.632 12.0047 158.571 12.014 158.506 12.014H158.338C157.908 12.014 157.544 11.9627 157.246 11.86C156.956 11.7573 156.723 11.608 156.546 11.412C156.368 11.2067 156.242 10.9593 156.168 10.67C156.093 10.3807 156.056 10.0493 156.056 9.676V1.486ZM159.718 5.434C160.091 5.22867 160.548 5.056 161.09 4.916C161.64 4.776 162.196 4.706 162.756 4.706C163.306 4.706 163.764 4.75733 164.128 4.86C164.501 4.95333 164.8 5.11667 165.024 5.35C165.248 5.574 165.406 5.87733 165.5 6.26C165.593 6.64267 165.64 7.114 165.64 7.674V9.858C165.64 10.138 165.696 10.3293 165.808 10.432C165.92 10.5347 166.083 10.586 166.298 10.586V11.93C166.12 11.9673 165.878 11.986 165.57 11.986C165.168 11.986 164.837 11.93 164.576 11.818C164.314 11.706 164.104 11.5287 163.946 11.286C163.684 11.5287 163.358 11.7247 162.966 11.874C162.574 12.0233 162.2 12.098 161.846 12.098C161.332 12.098 160.917 12.0373 160.6 11.916C160.282 11.7853 160.035 11.6173 159.858 11.412C159.69 11.2067 159.578 10.9733 159.522 10.712C159.466 10.4413 159.438 10.1613 159.438 9.872C159.438 9.40533 159.512 9.02267 159.662 8.724C159.811 8.42533 160.021 8.192 160.292 8.024C160.572 7.856 160.908 7.73933 161.3 7.674C161.692 7.60867 162.126 7.576 162.602 7.576C162.76 7.576 162.933 7.58067 163.12 7.59C163.306 7.59 163.474 7.59467 163.624 7.604V7.282C163.624 6.89 163.516 6.596 163.302 6.4C163.087 6.204 162.737 6.106 162.252 6.106C161.85 6.106 161.468 6.15733 161.104 6.26C160.74 6.35333 160.408 6.484 160.11 6.652L159.718 5.434ZM163.624 8.92C163.446 8.90133 163.274 8.892 163.106 8.892C162.938 8.88267 162.774 8.878 162.616 8.878C162.196 8.878 161.902 8.95733 161.734 9.116C161.575 9.27467 161.496 9.49867 161.496 9.788C161.496 10.096 161.552 10.334 161.664 10.502C161.785 10.6607 162.014 10.74 162.35 10.74C162.518 10.74 162.723 10.7073 162.966 10.642C163.218 10.5673 163.437 10.4413 163.624 10.264V8.92ZM175.72 1.752C175.319 2.2 174.974 2.63867 174.684 3.068C174.404 3.488 174.171 3.92667 173.984 4.384C173.798 4.832 173.658 5.31733 173.564 5.84C173.48 6.36267 173.438 6.946 173.438 7.59C173.438 8.21533 173.48 8.794 173.564 9.326C173.658 9.858 173.793 10.362 173.97 10.838C174.157 11.314 174.395 11.7667 174.684 12.196C174.974 12.6347 175.319 13.064 175.72 13.484L174.502 14.45C173.998 13.946 173.555 13.442 173.172 12.938C172.799 12.434 172.486 11.9113 172.234 11.37C171.982 10.8193 171.791 10.236 171.66 9.62C171.53 9.004 171.464 8.32733 171.464 7.59C171.464 6.84333 171.525 6.16667 171.646 5.56C171.777 4.95333 171.968 4.384 172.22 3.852C172.482 3.31067 172.799 2.79733 173.172 2.312C173.555 1.81733 173.998 1.31333 174.502 0.8L175.72 1.752ZM177.476 9.746C177.952 9.97933 178.41 10.1567 178.848 10.278C179.287 10.39 179.758 10.446 180.262 10.446C180.972 10.446 181.476 10.334 181.774 10.11C182.073 9.886 182.222 9.61067 182.222 9.284C182.222 9.13467 182.194 9.004 182.138 8.892C182.082 8.77067 182.012 8.668 181.928 8.584C181.844 8.5 181.756 8.43 181.662 8.374C181.578 8.318 181.504 8.276 181.438 8.248C181.037 8.052 180.612 7.87933 180.164 7.73C179.716 7.58067 179.268 7.41733 178.82 7.24C178.503 7.09067 178.223 6.93667 177.98 6.778C177.738 6.61 177.537 6.42333 177.378 6.218C177.22 6.01267 177.098 5.77467 177.014 5.504C176.93 5.23333 176.888 4.90667 176.888 4.524C176.888 3.61867 177.215 2.90933 177.868 2.396C178.531 1.88267 179.492 1.626 180.752 1.626C181.023 1.626 181.303 1.64 181.592 1.668C181.891 1.696 182.185 1.74267 182.474 1.808C182.773 1.864 183.058 1.93867 183.328 2.032C183.608 2.12533 183.865 2.242 184.098 2.382L183.412 3.894C183.076 3.698 182.675 3.53933 182.208 3.418C181.751 3.29667 181.27 3.236 180.766 3.236C180.113 3.236 179.642 3.33867 179.352 3.544C179.072 3.74933 178.932 4.02 178.932 4.356C178.932 4.68267 179.04 4.93933 179.254 5.126C179.357 5.21 179.464 5.28467 179.576 5.35C179.688 5.41533 179.796 5.47133 179.898 5.518C180.234 5.66733 180.631 5.826 181.088 5.994C181.546 6.15267 181.984 6.32533 182.404 6.512C182.656 6.63333 182.89 6.764 183.104 6.904C183.328 7.044 183.52 7.21667 183.678 7.422C183.846 7.62733 183.977 7.87 184.07 8.15C184.173 8.43 184.224 8.77067 184.224 9.172C184.224 9.62 184.131 10.026 183.944 10.39C183.767 10.754 183.51 11.062 183.174 11.314C182.838 11.566 182.428 11.762 181.942 11.902C181.457 12.0327 180.906 12.098 180.29 12.098C179.73 12.098 179.142 12.0327 178.526 11.902C177.91 11.7713 177.308 11.5613 176.72 11.272L177.476 9.746ZM185.393 4.874H187.101L187.241 5.294C187.474 5.14467 187.712 5.01867 187.955 4.916C188.356 4.776 188.799 4.706 189.285 4.706C190.283 4.706 191.021 5.01867 191.497 5.644C191.982 6.26933 192.225 7.11867 192.225 8.192C192.225 8.76133 192.164 9.28867 192.043 9.774C191.921 10.25 191.725 10.6607 191.455 11.006C191.184 11.3513 190.829 11.622 190.391 11.818C189.961 12.0047 189.439 12.098 188.823 12.098C188.477 12.098 188.165 12.0513 187.885 11.958C187.819 11.9393 187.759 11.9253 187.703 11.916C187.647 11.8973 187.591 11.8787 187.535 11.86V14.94L185.533 15.22V6.764L185.393 4.874ZM187.535 10.502C187.619 10.5393 187.698 10.5673 187.773 10.586C188.006 10.67 188.235 10.712 188.459 10.712C188.701 10.712 188.925 10.6747 189.131 10.6C189.345 10.516 189.527 10.3853 189.677 10.208C189.826 10.0213 189.943 9.77867 190.027 9.48C190.111 9.172 190.153 8.794 190.153 8.346C190.153 6.85267 189.635 6.106 188.599 6.106C188.291 6.106 188.006 6.18533 187.745 6.344C187.707 6.36267 187.67 6.386 187.633 6.414C187.605 6.43267 187.572 6.46067 187.535 6.498V10.502ZM193.53 1.486L195.532 1.22V5.266C195.626 5.21933 195.719 5.17267 195.812 5.126C195.906 5.07933 196.004 5.03733 196.106 5C196.358 4.90667 196.615 4.83667 196.876 4.79C197.138 4.74333 197.385 4.72 197.618 4.72C198.076 4.72 198.449 4.78067 198.738 4.902C199.037 5.014 199.275 5.17733 199.452 5.392C199.63 5.60667 199.751 5.86333 199.816 6.162C199.891 6.46067 199.928 6.79667 199.928 7.17V11.93H197.926V7.604C197.926 7.42667 197.917 7.25867 197.898 7.1C197.889 6.94133 197.852 6.80133 197.786 6.68C197.721 6.55867 197.623 6.46067 197.492 6.386C197.362 6.31133 197.184 6.274 196.96 6.274C196.634 6.274 196.354 6.316 196.12 6.4C195.878 6.50267 195.682 6.60533 195.532 6.708V11.93H193.53V1.486ZM203.238 8.878C203.238 9.354 203.331 9.75067 203.518 10.068C203.77 10.4787 204.274 10.684 205.03 10.684C205.31 10.684 205.557 10.6653 205.772 10.628C205.987 10.5907 206.183 10.544 206.36 10.488C206.537 10.432 206.701 10.3713 206.85 10.306C207.009 10.2313 207.163 10.1613 207.312 10.096L207.69 11.342C207.55 11.426 207.368 11.5147 207.144 11.608C206.929 11.7013 206.687 11.7853 206.416 11.86C206.155 11.9253 205.875 11.9813 205.576 12.028C205.287 12.0747 204.997 12.098 204.708 12.098C203.411 12.098 202.496 11.7853 201.964 11.16C201.441 10.5253 201.18 9.592 201.18 8.36C201.18 5.924 202.347 4.706 204.68 4.706C205.324 4.706 205.847 4.79467 206.248 4.972C206.659 5.14 206.976 5.378 207.2 5.686C207.433 5.994 207.592 6.358 207.676 6.778C207.76 7.198 207.802 7.66 207.802 8.164V8.878H203.238ZM205.73 7.576C205.73 7.072 205.646 6.68467 205.478 6.414C205.319 6.134 205.044 5.994 204.652 5.994C204.204 5.994 203.868 6.106 203.644 6.33C203.42 6.54467 203.294 6.862 203.266 7.282C203.257 7.32867 203.252 7.37533 203.252 7.422C203.252 7.46867 203.252 7.52 203.252 7.576H205.73ZM208.934 4.874H210.782L210.894 5.63C211.053 5.41533 211.249 5.24267 211.482 5.112C211.94 4.84133 212.416 4.706 212.91 4.706C213.172 4.706 213.4 4.734 213.596 4.79C213.802 4.83667 213.974 4.888 214.114 4.944L213.652 6.512C213.41 6.36267 213.106 6.288 212.742 6.288C212.369 6.288 212.01 6.38133 211.664 6.568C211.571 6.61467 211.478 6.67067 211.384 6.736C211.3 6.80133 211.221 6.88067 211.146 6.974V11.93H209.144V6.876L208.934 4.874ZM214.927 1.78H216.957V3.39H214.927V1.78ZM214.941 4.874H216.943V11.93H214.941V4.874ZM223.506 6.722C223.31 6.48867 223.095 6.32533 222.862 6.232C222.638 6.13867 222.381 6.092 222.092 6.092C221.476 6.092 221.023 6.27867 220.734 6.652C220.454 7.016 220.314 7.63667 220.314 8.514C220.314 9.214 220.435 9.75533 220.678 10.138C220.93 10.5207 221.378 10.712 222.022 10.712C222.442 10.712 222.806 10.6653 223.114 10.572C223.422 10.4787 223.739 10.348 224.066 10.18L224.43 11.454C224.178 11.6313 223.823 11.7853 223.366 11.916C222.918 12.0373 222.4 12.098 221.812 12.098C221.168 12.098 220.622 12.0233 220.174 11.874C219.726 11.7153 219.362 11.4867 219.082 11.188C218.802 10.88 218.596 10.5067 218.466 10.068C218.344 9.62 218.284 9.102 218.284 8.514C218.284 7.21667 218.606 6.26 219.25 5.644C219.894 5.01867 220.846 4.706 222.106 4.706C222.638 4.706 223.128 4.79467 223.576 4.972C224.033 5.14 224.383 5.36867 224.626 5.658L223.506 6.722ZM225.602 5.434C225.976 5.22867 226.433 5.056 226.974 4.916C227.525 4.776 228.08 4.706 228.64 4.706C229.191 4.706 229.648 4.75733 230.012 4.86C230.386 4.95333 230.684 5.11667 230.908 5.35C231.132 5.574 231.291 5.87733 231.384 6.26C231.478 6.64267 231.524 7.114 231.524 7.674V9.858C231.524 10.138 231.58 10.3293 231.692 10.432C231.804 10.5347 231.968 10.586 232.182 10.586V11.93C232.005 11.9673 231.762 11.986 231.454 11.986C231.053 11.986 230.722 11.93 230.46 11.818C230.199 11.706 229.989 11.5287 229.83 11.286C229.569 11.5287 229.242 11.7247 228.85 11.874C228.458 12.0233 228.085 12.098 227.73 12.098C227.217 12.098 226.802 12.0373 226.484 11.916C226.167 11.7853 225.92 11.6173 225.742 11.412C225.574 11.2067 225.462 10.9733 225.406 10.712C225.35 10.4413 225.322 10.1613 225.322 9.872C225.322 9.40533 225.397 9.02267 225.546 8.724C225.696 8.42533 225.906 8.192 226.176 8.024C226.456 7.856 226.792 7.73933 227.184 7.674C227.576 7.60867 228.01 7.576 228.486 7.576C228.645 7.576 228.818 7.58067 229.004 7.59C229.191 7.59 229.359 7.59467 229.508 7.604V7.282C229.508 6.89 229.401 6.596 229.186 6.4C228.972 6.204 228.622 6.106 228.136 6.106C227.735 6.106 227.352 6.15733 226.988 6.26C226.624 6.35333 226.293 6.484 225.994 6.652L225.602 5.434ZM229.508 8.92C229.331 8.90133 229.158 8.892 228.99 8.892C228.822 8.88267 228.659 8.878 228.5 8.878C228.08 8.878 227.786 8.95733 227.618 9.116C227.46 9.27467 227.38 9.49867 227.38 9.788C227.38 10.096 227.436 10.334 227.548 10.502C227.67 10.6607 227.898 10.74 228.234 10.74C228.402 10.74 228.608 10.7073 228.85 10.642C229.102 10.5673 229.322 10.4413 229.508 10.264V8.92ZM233.138 1.486L235.126 1.22V9.634C235.126 9.84867 235.14 10.0213 235.168 10.152C235.196 10.2733 235.238 10.3667 235.294 10.432C235.359 10.4973 235.443 10.5393 235.546 10.558C235.649 10.5767 235.779 10.586 235.938 10.586V11.972C235.91 11.9813 235.854 11.986 235.77 11.986C235.714 12.0047 235.653 12.014 235.588 12.014H235.42C234.991 12.014 234.627 11.9627 234.328 11.86C234.039 11.7573 233.805 11.608 233.628 11.412C233.451 11.2067 233.325 10.9593 233.25 10.67C233.175 10.3807 233.138 10.0493 233.138 9.676V1.486ZM240.549 4.874H241.557V4.062C241.557 3.53 241.632 3.082 241.781 2.718C241.93 2.354 242.14 2.06 242.411 1.836C242.682 1.612 243.004 1.45333 243.377 1.36C243.75 1.26667 244.156 1.22 244.595 1.22C244.912 1.22 245.22 1.24333 245.519 1.29C245.818 1.32733 246.088 1.39733 246.331 1.5L245.925 2.9C245.598 2.76 245.253 2.69 244.889 2.69C244.385 2.69 244.035 2.79733 243.839 3.012C243.652 3.21733 243.559 3.53 243.559 3.95V4.874H245.897V6.344H243.573V11.93H241.571V6.344H240.549V4.874ZM246.577 1.78H248.607V3.39H246.577V1.78ZM246.591 4.874H248.593V11.93H246.591V4.874ZM251.992 8.878C251.992 9.354 252.085 9.75067 252.272 10.068C252.524 10.4787 253.028 10.684 253.784 10.684C254.064 10.684 254.311 10.6653 254.526 10.628C254.741 10.5907 254.937 10.544 255.114 10.488C255.291 10.432 255.455 10.3713 255.604 10.306C255.763 10.2313 255.917 10.1613 256.066 10.096L256.444 11.342C256.304 11.426 256.122 11.5147 255.898 11.608C255.683 11.7013 255.441 11.7853 255.17 11.86C254.909 11.9253 254.629 11.9813 254.33 12.028C254.041 12.0747 253.751 12.098 253.462 12.098C252.165 12.098 251.25 11.7853 250.718 11.16C250.195 10.5253 249.934 9.592 249.934 8.36C249.934 5.924 251.101 4.706 253.434 4.706C254.078 4.706 254.601 4.79467 255.002 4.972C255.413 5.14 255.73 5.378 255.954 5.686C256.187 5.994 256.346 6.358 256.43 6.778C256.514 7.198 256.556 7.66 256.556 8.164V8.878H251.992ZM254.484 7.576C254.484 7.072 254.4 6.68467 254.232 6.414C254.073 6.134 253.798 5.994 253.406 5.994C252.958 5.994 252.622 6.106 252.398 6.33C252.174 6.54467 252.048 6.862 252.02 7.282C252.011 7.32867 252.006 7.37533 252.006 7.422C252.006 7.46867 252.006 7.52 252.006 7.576H254.484ZM257.87 1.486L259.858 1.22V9.634C259.858 9.84867 259.872 10.0213 259.9 10.152C259.928 10.2733 259.97 10.3667 260.026 10.432C260.092 10.4973 260.176 10.5393 260.278 10.558C260.381 10.5767 260.512 10.586 260.67 10.586V11.972C260.642 11.9813 260.586 11.986 260.502 11.986C260.446 12.0047 260.386 12.014 260.32 12.014H260.152C259.723 12.014 259.359 11.9627 259.06 11.86C258.771 11.7573 258.538 11.608 258.36 11.412C258.183 11.2067 258.057 10.9593 257.982 10.67C257.908 10.3807 257.87 10.0493 257.87 9.676V1.486ZM266.04 1.486L268.042 1.22V10.04L268.182 11.93H266.474L266.334 11.51C266.101 11.6687 265.858 11.7947 265.606 11.888C265.195 12.028 264.761 12.098 264.304 12.098C263.8 12.098 263.361 12.0187 262.988 11.86C262.615 11.692 262.307 11.4587 262.064 11.16C261.821 10.852 261.639 10.4833 261.518 10.054C261.406 9.61533 261.35 9.13 261.35 8.598C261.35 8.038 261.411 7.52 261.532 7.044C261.653 6.568 261.849 6.15733 262.12 5.812C262.391 5.46667 262.741 5.196 263.17 5C263.599 4.804 264.127 4.706 264.752 4.706C265.097 4.706 265.405 4.75267 265.676 4.846C265.741 4.86467 265.802 4.88333 265.858 4.902C265.923 4.92067 265.984 4.93933 266.04 4.958V1.486ZM266.04 6.33C265.965 6.28333 265.886 6.24133 265.802 6.204C265.55 6.12933 265.321 6.092 265.116 6.092C264.873 6.092 264.645 6.134 264.43 6.218C264.225 6.29267 264.047 6.42333 263.898 6.61C263.749 6.78733 263.632 7.03 263.548 7.338C263.464 7.63667 263.422 8.01 263.422 8.458C263.422 9.95133 263.94 10.698 264.976 10.698C265.284 10.698 265.573 10.6187 265.844 10.46L266.04 10.306V6.33ZM270.689 0.8C271.183 1.31333 271.617 1.81733 271.991 2.312C272.373 2.79733 272.691 3.306 272.943 3.838C273.204 4.37 273.4 4.944 273.531 5.56C273.661 6.16667 273.727 6.84333 273.727 7.59C273.727 8.32733 273.661 9.004 273.531 9.62C273.4 10.236 273.204 10.8147 272.943 11.356C272.691 11.8973 272.373 12.42 271.991 12.924C271.617 13.428 271.183 13.9367 270.689 14.45L269.457 13.484C269.858 13.0547 270.203 12.6253 270.493 12.196C270.791 11.7667 271.029 11.3187 271.207 10.852C271.393 10.376 271.529 9.872 271.613 9.34C271.706 8.808 271.753 8.22467 271.753 7.59C271.753 6.946 271.706 6.36267 271.613 5.84C271.529 5.31733 271.393 4.832 271.207 4.384C271.02 3.92667 270.782 3.488 270.493 3.068C270.203 2.63867 269.858 2.2 269.457 1.752L270.689 0.8Z" fill="#1B1D1F"/>
<path d="M3.948 31.68L2.916 30.048L1.884 31.68L1.044 31.092L2.292 29.604L0.492 29.148L0.792 28.176L2.532 28.884L2.4 27H3.42L3.288 28.884L5.028 28.176L5.328 29.148L3.516 29.604L4.776 31.092L3.948 31.68ZM10.3365 32.556C10.1605 32.476 9.9605 32.392 9.7365 32.304C9.5125 32.208 9.2805 32.112 9.0405 32.016C8.8005 31.92 8.5605 31.824 8.3205 31.728C8.0885 31.632 7.8765 31.536 7.6845 31.44C7.4765 31.328 7.2925 31.212 7.1325 31.092C6.9725 30.964 6.8365 30.82 6.7245 30.66C6.6205 30.5 6.5365 30.316 6.4725 30.108C6.4165 29.9 6.3885 29.656 6.3885 29.376C6.3885 28.984 6.4685 28.648 6.6285 28.368C6.7885 28.08 7.0085 27.844 7.2885 27.66C7.5685 27.476 7.8925 27.34 8.2605 27.252C8.6365 27.156 9.0405 27.108 9.4725 27.108C10.4325 27.108 11.2765 27.284 12.0045 27.636L11.6445 28.428C11.3965 28.316 11.0885 28.208 10.7205 28.104C10.3525 27.992 9.9405 27.936 9.4845 27.936C8.8365 27.936 8.3285 28.056 7.9605 28.296C7.6005 28.536 7.4205 28.872 7.4205 29.304C7.4205 29.592 7.4885 29.84 7.6245 30.048C7.7605 30.248 7.9805 30.428 8.2845 30.588C8.4525 30.676 8.6445 30.764 8.8605 30.852C9.0765 30.932 9.3005 31.016 9.5325 31.104C9.7645 31.184 9.9925 31.272 10.2165 31.368C10.4485 31.464 10.6605 31.568 10.8525 31.68C11.0445 31.784 11.2205 31.896 11.3805 32.016C11.5405 32.136 11.6765 32.276 11.7885 32.436C11.9085 32.588 12.0005 32.772 12.0645 32.988C12.1365 33.196 12.1725 33.444 12.1725 33.732C12.1725 34.132 12.0925 34.48 11.9325 34.776C11.7805 35.064 11.5645 35.308 11.2845 35.508C11.0045 35.7 10.6725 35.844 10.2885 35.94C9.9125 36.036 9.5045 36.084 9.0645 36.084C8.5765 36.084 8.0925 36.036 7.6125 35.94C7.1325 35.836 6.7005 35.688 6.3165 35.496L6.7005 34.68C7.0925 34.864 7.4685 35.004 7.8285 35.1C8.1965 35.188 8.5965 35.232 9.0285 35.232C9.7565 35.232 10.2925 35.108 10.6365 34.86C10.9885 34.604 11.1645 34.26 11.1645 33.828C11.1645 33.268 10.8885 32.844 10.3365 32.556ZM13.6397 35.94V27.24H16.5557C17.5237 27.24 18.2517 27.456 18.7397 27.888C19.2277 28.312 19.4717 28.948 19.4717 29.796C19.4717 30.236 19.4037 30.628 19.2677 30.972C19.1397 31.308 18.9557 31.596 18.7157 31.836C18.4837 32.068 18.1997 32.244 17.8637 32.364C17.5277 32.484 17.1557 32.544 16.7477 32.544H14.6477V35.94H13.6397ZM16.5917 31.704C17.1517 31.704 17.5997 31.552 17.9357 31.248C18.2797 30.944 18.4517 30.46 18.4517 29.796C18.4517 29.5 18.4037 29.244 18.3077 29.028C18.2117 28.812 18.0797 28.636 17.9117 28.5C17.7437 28.356 17.5477 28.252 17.3237 28.188C17.0997 28.124 16.8557 28.092 16.5917 28.092H14.6477V31.704H16.5917ZM25.9813 35.1V35.94H20.9053V27.24H21.9133V35.1H25.9813ZM31.3421 30.312H30.2141V29.196H31.3421V30.312ZM31.3421 36.06H30.2141V34.956H31.3421V36.06ZM41.6141 35.1V35.94H36.5381V27.24H37.5461V35.1H41.6141ZM43.2093 29.892L43.3173 30.324C43.5653 30.172 43.8253 30.04 44.0973 29.928C44.4173 29.808 44.7813 29.748 45.1893 29.748C46.0533 29.748 46.6813 30.012 47.0733 30.54C47.4733 31.068 47.6733 31.828 47.6733 32.82C47.6733 33.3 47.6173 33.74 47.5053 34.14C47.4013 34.54 47.2333 34.884 47.0013 35.172C46.7693 35.46 46.4693 35.684 46.1013 35.844C45.7413 36.004 45.3013 36.084 44.7813 36.084C44.4453 36.084 44.1693 36.044 43.9533 35.964C43.7853 35.932 43.6173 35.872 43.4493 35.784V38.592L42.4413 38.748V31.428L42.3453 29.892H43.2093ZM44.6853 35.304C45.3093 35.304 45.7893 35.116 46.1253 34.74C46.4613 34.356 46.6293 33.716 46.6293 32.82C46.6293 32.516 46.6013 32.228 46.5453 31.956C46.4973 31.676 46.4053 31.432 46.2693 31.224C46.1413 31.016 45.9653 30.852 45.7413 30.732C45.5253 30.604 45.2453 30.54 44.9013 30.54C44.5413 30.54 44.2253 30.616 43.9533 30.768C43.7613 30.872 43.5933 30.984 43.4493 31.104V34.932C43.8173 35.18 44.2293 35.304 44.6853 35.304Z" fill="#1B1D1F"/>
<path d="M64.948 31.68L63.916 30.048L62.884 31.68L62.044 31.092L63.292 29.604L61.492 29.148L61.792 28.176L63.532 28.884L63.4 27H64.42L64.288 28.884L66.028 28.176L66.328 29.148L64.516 29.604L65.776 31.092L64.948 31.68ZM67.7725 35.94V27.24H70.6885C71.6565 27.24 72.3845 27.456 72.8725 27.888C73.3605 28.312 73.6045 28.948 73.6045 29.796C73.6045 30.236 73.5365 30.628 73.4005 30.972C73.2725 31.308 73.0885 31.596 72.8485 31.836C72.6165 32.068 72.3325 32.244 71.9965 32.364C71.6605 32.484 71.2885 32.544 70.8805 32.544H68.7805V35.94H67.7725ZM70.7245 31.704C71.2845 31.704 71.7325 31.552 72.0685 31.248C72.4125 30.944 72.5845 30.46 72.5845 29.796C72.5845 29.5 72.5365 29.244 72.4405 29.028C72.3445 28.812 72.2125 28.636 72.0445 28.5C71.8765 28.356 71.6805 28.252 71.4565 28.188C71.2325 28.124 70.9885 28.092 70.7245 28.092H68.7805V31.704H70.7245ZM86.1141 27.24L83.7501 35.94H82.1781L80.2461 28.068H80.1261L78.2301 35.94H76.6701L74.2101 27.24H75.3141L77.4021 35.112H77.5221L79.3701 27.24H80.9901L82.9461 35.112H83.0541L85.0461 27.24H86.1141ZM92.2782 35.1V35.94H87.2022V27.24H88.2102V35.1H92.2782ZM97.639 30.312H96.511V29.196H97.639V30.312ZM97.639 36.06H96.511V34.956H97.639V36.06ZM107.911 35.1V35.94H102.835V27.24H103.843V35.1H107.911ZM113.098 29.892L114.334 35.172H114.454L115.834 29.892H116.842L115.114 35.94H113.65L112.414 30.66H112.294L111.07 35.94H109.594L107.914 29.892H108.946L110.302 35.172H110.41L111.622 29.892H113.098Z" fill="#1B1D1F"/>
</svg>
